<svg xmlns="http://www.w3.org/2000/svg" viewBox="0 0 96 96"><title>animation</title><path d="M48,3.4L87,25.71V70.29L48,92.6,9,70.29V25.71L48,3.4m0-2.3L7,24.55V71.45L48,94.91,89,71.45V24.55L48,1.09h0Z" fill="#fff"/><path d="M48,36.47a5.69,5.69,0,1,1,5.69-5.69A5.7,5.7,0,0,1,48,36.47Zm0-9.38a3.69,3.69,0,1,0,3.69,3.69A3.7,3.7,0,0,0,48,27.09Z" fill="#fff"/><path d="M56.79,70.15c-1.11,0-2.34-.62-3.18-2.41-1.37-2.9-4.23-8.34-5.67-11.06-1.48,2.71-4.42,8.15-5.79,11.06-1.12,2.38-3.09,2.78-4.54,2.12a4.32,4.32,0,0,1-2-5.63C37,61.14,41.41,52.62,42.24,51l-0.6-8.94c-1.92-.23-6.77-0.81-9.92-1.25-2.58-.36-3.31-1.92-3.15-3.14a3.64,3.64,0,0,1,4.08-2.86c2.61,0.31,13.94,1.81,15.3,2,1.35-.18,12.54-1.68,15.15-2a3.55,3.55,0,0,1,4,2.83c0.16,1.24-.58,2.81-3.18,3.17-3.19.44-8.57,1-10.63,1.25L52.71,51c1,1.65,5.92,10.15,7.26,13.25a4.32,4.32,0,0,1-1.92,5.64A3.1,3.1,0,0,1,56.79,70.15ZM32.18,36.79a1.61,1.61,0,0,0-1.62,1.15c-0.08.64,1.08,0.85,1.44,0.9,4,0.55,10.64,1.33,10.7,1.34a1,1,0,0,1,.88.93l0.67,10.05a1,1,0,0,1-.11.53c-0.05.1-5.25,10.06-6.67,13.34a2.3,2.3,0,0,0,1,3c1,0.44,1.61-.53,1.91-1.15,1.89-4,6.54-12.22,6.73-12.58A0.86,0.86,0,0,1,48,54h0a0.85,0.85,0,0,1,.88.32c0,0.09,4.69,8.68,6.58,12.67,0.29,0.61.91,1.52,1.82,1.11a2.36,2.36,0,0,0,.9-3c-1.41-3.26-7.25-13.21-7.31-13.31a1,1,0,0,1-.14-0.58l0.69-10.06a1,1,0,0,1,.89-0.93c0.07,0,7.44-.79,11.4-1.34,0.37-.05,1.55-0.27,1.47-0.93a1.61,1.61,0,0,0-1.81-1.1c-2.75.33-15.13,2-15.25,2a1,1,0,0,1-.26,0c-0.13,0-12.65-1.68-15.4-2H32.18Z" fill="#fff"/><path d="M44,26H37a0.5,0.5,0,0,1,0-1h7A0.5,0.5,0,0,1,44,26Z" fill="#fff"/><path d="M41,30H34a0.5,0.5,0,0,1,0-1h7A0.5,0.5,0,0,1,41,30Z" fill="#fff"/><path d="M41,34H34a0.5,0.5,0,0,1,0-1h7A0.5,0.5,0,0,1,41,34Z" fill="#fff"/><path d="M28,36H21a0.5,0.5,0,0,1,0-1h7A0.5,0.5,0,0,1,28,36Z" fill="#fff"/><path d="M28,40H21a0.5,0.5,0,0,1,0-1h7A0.5,0.5,0,0,1,28,40Z" fill="#fff"/><path d="M40,46H33a0.5,0.5,0,0,1,0-1h7A0.5,0.5,0,0,1,40,46Z" fill="#fff"/><path d="M40,50H33a0.5,0.5,0,0,1,0-1h7A0.5,0.5,0,0,1,40,50Z" fill="#fff"/><path d="M39,54H32a0.5,0.5,0,0,1,0-1h7A0.5,0.5,0,0,1,39,54Z" fill="#fff"/><path d="M37,58H30a0.5,0.5,0,0,1,0-1h7A0.5,0.5,0,0,1,37,58Z" fill="#fff"/><path d="M35,62H28a0.5,0.5,0,0,1,0-1h7A0.5,0.5,0,0,1,35,62Z" fill="#fff"/><path d="M34,66H27a0.5,0.5,0,0,1,0-1h7A0.5,0.5,0,0,1,34,66Z" fill="#fff"/><path d="M35,70H28a0.5,0.5,0,0,1,0-1h7A0.5,0.5,0,0,1,35,70Z" fill="#fff"/></svg>