<svg xmlns="http://www.w3.org/2000/svg" viewBox="0 0 96 96"><title>download</title><path d="M48,2.4L87,24.71V69.29L48,91.6,9,69.29V24.71L48,2.4m0-2.3L7,23.55V70.45L48,93.91,89,70.45V23.55L48,0.09h0Z" fill="#fff"/><path d="M65,60.5c0,1.07-1.14,1.5-2.21,1.5H33.21C32.14,62,31,61.57,31,60.5V54.07A2.32,2.32,0,0,1,33.21,52H45.55l0.71,0.81C47,53.53,47,54,48,54s1-.46,1.73-1.18L50.47,52H62.79A2.32,2.32,0,0,1,65,54.07V60.5ZM57.91,44l-9,9a1.26,1.26,0,0,1-1.81,0l-9-9a1.15,1.15,0,0,1-.28-1.33A1.24,1.24,0,0,1,39,42h5V32.85c0-.7.72-0.85,1.43-0.85h5.14c0.7,0,1.43.15,1.43,0.85V42h5a1.24,1.24,0,0,1,1.19.71A1.15,1.15,0,0,1,57.91,44Z" fill="none" stroke="#fff" stroke-miterlimit="10" stroke-width="2"/></svg>